<?xml version="1.0" encoding="utf-8"?>
<!-- Generator: Adobe Illustrator 15.0.2, SVG Export Plug-In . SVG Version: 6.00 Build 0)  -->
<!DOCTYPE svg PUBLIC "-//W3C//DTD SVG 1.1//EN" "http://www.w3.org/Graphics/SVG/1.1/DTD/svg11.dtd">
<svg version="1.1" id="Layer_1" xmlns="http://www.w3.org/2000/svg" xmlns:xlink="http://www.w3.org/1999/xlink" x="0px" y="0px"
	 width="66px" height="60px" viewBox="0 0 66 60" enable-background="new 0 0 66 60" xml:space="preserve">
<g>
	<path fill="#3984B5" d="M66,54.387c0,3.1-2.766,5.613-6.176,5.613H4.172C0.762,60,0,57.486,0,54.387V5.611C0,2.512,0.762,0,4.172,0
		l56.58,0.039C64.162,0.039,66,1.4,66,4.5V54.387z"/>
	<g>
		<g>
			<path fill="#FFFFFF" d="M36,22.477v17.406c0,2.338-0.412,4.328-1.369,5.965c-0.957,1.633-2.271,2.859-4.002,3.674
				c-1.73,0.818-3.719,1.227-5.996,1.227c-0.941,0-2.176-0.162-3.711-0.486c-1.539-0.332-2.865-0.832-3.988-1.512
				c-1.127-0.68-1.686-1.523-1.686-2.512c0-0.572,0.26-1.156,0.779-1.754c0.52-0.586,1.062-0.887,1.629-0.887
				c0.527,0,1.344,0.219,2.465,0.658c1.117,0.436,1.973,0.744,2.574,0.938c0.598,0.191,1.402,0.287,2.418,0.287
				c0.969,0,1.842-0.188,2.609-0.559c0.768-0.379,1.285-0.922,1.715-1.631C29.871,42.57,30,41.719,30,40.727V40h0.086
				c-1.293,2-3.299,2.5-6,2.5c-1.525,0-2.859-0.482-4.006-1.094c-1.146-0.613-2.107-1.559-2.893-2.662
				c-0.785-1.102-1.359-2.389-1.738-3.76c-0.375-1.379-0.562-2.85-0.562-4.373c0-1.516,0.219-2.979,0.672-4.381
				c0.459-1.406,1.117-2.668,1.984-3.777c0.871-1.111,1.908-1.984,3.131-2.617c1.221-0.633,2.561-0.951,4.016-0.951
				c0.697,0,1.4,0.104,2.107,0.314c0.715,0.211,1.359,0.527,1.941,0.943c0.586,0.414,1.064,0.916,1.428,1.498
				c0.377-1.676,1.367-2.512,2.971-2.512c0.58,0,1.098,0.141,1.545,0.416c0.455,0.283,0.742,0.674,1,1.186
				C35.939,21.244,36,21.824,36,22.477z M30.166,30.68c0-1.008-0.172-2.002-0.514-2.977c-0.346-0.977-0.873-1.773-1.588-2.381
				c-0.717-0.617-1.58-0.924-2.588-0.924c-0.957,0-1.791,0.301-2.504,0.898c-0.715,0.602-1.246,1.359-1.602,2.283
				c-0.348,0.916-0.521,1.889-0.521,2.893c0,1.121,0.174,2.145,0.521,3.074c0.355,0.926,0.877,1.672,1.58,2.234
				c0.701,0.57,1.541,0.854,2.525,0.854c1.496,0,2.648-0.588,3.465-1.752S30.166,32.316,30.166,30.68z"/>
		</g>
		<g>
			<path fill="#FFFFFF" d="M38,19.02v-3.027c0-2.139,0.812-3.797,1.938-4.975c1.133-1.178,2.732-1.766,4.555-1.766
				c1.162,0,2.191,0.209,2.965,0.619c0.77,0.422,1.188,1.098,1.188,2.053c0,1.67-0.779,2.506-2.373,2.506
				c-0.646,0-1.295,0.119-1.623,0.359S44,15.639,44,16.613V20h2.164c1.965,0,2.949,0.273,2.949,1.992
				c0,1.729-0.984,2.008-2.949,2.008H44v13.828c0,0.979-0.105,1.77-0.641,2.377c-0.539,0.611-1.162,0.916-2.031,0.916
				c-0.875,0-1.785-0.305-2.324-0.916C38.473,39.598,38,38.807,38,37.828V24.191V19.02z"/>
		</g>
	</g>
</g>
</svg>
