<?xml version="1.0" encoding="utf-8"?>
<!-- Generator: Adobe Illustrator 15.0.2, SVG Export Plug-In . SVG Version: 6.00 Build 0)  -->
<!DOCTYPE svg PUBLIC "-//W3C//DTD SVG 1.1//EN" "http://www.w3.org/Graphics/SVG/1.1/DTD/svg11.dtd">
<svg version="1.1" id="Layer_1" xmlns="http://www.w3.org/2000/svg" xmlns:xlink="http://www.w3.org/1999/xlink" x="0px" y="0px"
	 width="66px" height="60px" viewBox="0 0 66 60" enable-background="new 0 0 66 60" xml:space="preserve">
<g>
	<path fill="#524E86" d="M66,54.387c0,3.1-1.764,5.613-5.172,5.613H5.172C1.766,60,0,57.486,0,54.387V5.611C0,2.512,1.766,0,5.172,0
		h55.656C64.236,0,66,2.512,66,5.611V54.387z"/>
	<path fill="#FFFFFF" d="M30.834,36.316c1.232-6.145-4.014-14.812-9.436-15.633c-0.121,0.574-0.273,1.152-0.367,1.738
		c-0.562,3.557,0.834,5.729,4.248,6.521c1.15,0.268,2.1,0.834,2.814,1.754c0.555,0.709,1.055,1.486,1.441,2.301
		C30.025,34.027,30.377,35.127,30.834,36.316 M17.602,13.1c-0.805,0.963-1.547,1.812-2.232,2.707
		c-0.104,0.131,0.027,0.484,0.102,0.717c0.342,1.068,0.896,2.104,1.021,3.195c0.459,4.01,0.906,8.031,1.105,12.061
		c0.127,2.631-0.115,5.291-0.332,7.926c-0.107,1.266-0.74,2.385-2.027,2.824c-1.898,0.65-3.863,1.02-5.863,0.762
		c-1.723-0.223-3.057-1.135-3.801-2.803c-0.926-2.074-0.721-4.256-0.512-6.432c0.047-0.471,0.117-0.939,0.178-1.408
		c-0.084-0.02-0.17-0.039-0.252-0.061c-0.457,1.572-0.992,3.125-1.354,4.719c-0.449,1.994-0.793,4.014-0.281,6.074
		c0.436,1.768,1.529,2.875,3.217,3.197c2.061,0.396,4.164,0.506,6.211-0.125c3.215-0.99,5.59-2.949,6.338-6.469
		c0.373-1.758,0.602-3.568,0.689-5.367c0.213-4.361-0.135-8.707-0.676-13.035c-0.133-1.07-0.094-2.062,0.527-2.988
		c0.258-0.385,0.445-0.834,0.586-1.279c0.057-0.18-0.037-0.475-0.16-0.639c-0.562-0.732-1.184-1.414-1.732-2.156
		C18.07,14.133,17.893,13.662,17.602,13.1"/>
	<path fill="#FFFFFF" d="M64,37.807c0,1.09-0.811,2.199-1.494,3.26c-0.145,0.227-0.314,0.426-0.576,0.402
		c-4-0.352-7.695,0.502-11.406,1.936c-1.5,0.578-2.887,1.34-4.424,1.781c-2.469,0.711-4.322-0.145-5.768-2.348
		c-1.332-2.027-1.938-4.33-2.322-6.691c-0.363-2.221-0.549-4.471-0.822-6.707c-0.023-0.199-0.062-0.396-0.215-0.604
		c-0.227,0.967-0.43,1.939-0.682,2.898c-0.791,3.006-1.854,5.883-3.635,8.445c-2.746,3.961-6.521,6.09-11.154,6.639
		c-1.232,0.145-2.49,0.021-3.826,0.021c0.32-0.105,0.586-0.195,0.854-0.277c4.549-1.422,8.611-3.668,11.75-7.449
		c2.762-3.328,4.307-7.24,4.936-11.516c0.359-2.43,0.312-4.92,0.635-7.355c0.186-1.4,0.736-2.75,1.242-4.121
		c0.732,0.98,1.631,1.664,1.479,3.176c-0.402,3.918-0.4,7.863,0.109,11.787c0.27,2.059,0.711,4.08,1.566,5.979
		c0.957,2.115,2.357,3.812,4.688,4.234c1.125,0.205,2.344,0.113,3.48-0.078c2.008-0.334,3.783-1.318,5.684-2.457
		c-1.773-1.365-3.547-2.238-5.658-2.338c-2.107-0.1-3.896,0.754-5.586,1.949c-0.053-0.051-0.107-0.105-0.158-0.158
		c0.391-0.68,0.758-1.377,1.184-2.033c1.066-1.645,2.336-3.061,4.26-3.637c1.443-0.434,2.877-0.326,4.26,0.27
		c2.773,1.193,5.076,2.432,7.861,3.594c1.332,0.557,3.74,0.814,3.74,0.609V37.807z"/>
	<path fill="#FFFFFF" d="M17.602,13.1c0.291,0.562,0.469,1.033,0.752,1.42c0.549,0.742,1.17,1.424,1.732,2.156
		c0.123,0.164,0.217,0.459,0.16,0.639c-0.141,0.445-0.328,0.895-0.586,1.279c-0.621,0.926-0.66,1.918-0.527,2.988
		c0.541,4.328,0.889,8.674,0.676,13.035c-0.088,1.799-0.316,3.609-0.689,5.367c-0.748,3.52-3.123,5.479-6.338,6.469
		c-2.047,0.631-4.15,0.521-6.211,0.125c-1.688-0.322-2.781-1.43-3.217-3.197c-0.512-2.061-0.168-4.08,0.281-6.074
		c0.361-1.594,0.896-3.146,1.354-4.719c0.082,0.021,0.168,0.041,0.252,0.061c-0.061,0.469-0.131,0.938-0.178,1.408
		c-0.209,2.176-0.414,4.357,0.512,6.432c0.744,1.668,2.078,2.58,3.801,2.803c2,0.258,3.965-0.111,5.863-0.762
		c1.287-0.439,1.92-1.559,2.027-2.824c0.217-2.635,0.459-5.295,0.332-7.926c-0.199-4.029-0.646-8.051-1.105-12.061
		c-0.125-1.092-0.68-2.127-1.021-3.195c-0.074-0.232-0.205-0.586-0.102-0.717C16.055,14.912,16.797,14.062,17.602,13.1"/>
	<path fill="#FFFFFF" d="M30.834,36.316c-0.457-1.189-0.807-2.287-1.299-3.318c-0.387-0.816-0.887-1.592-1.441-2.301
		c-0.715-0.92-1.662-1.488-2.814-1.754c-3.414-0.793-4.811-2.965-4.248-6.521c0.094-0.586,0.246-1.162,0.367-1.738
		C26.82,21.504,32.066,30.172,30.834,36.316"/>
</g>
</svg>
