<?xml version="1.0" encoding="utf-8"?>
<!-- Generator: Adobe Illustrator 15.0.2, SVG Export Plug-In . SVG Version: 6.00 Build 0)  -->
<!DOCTYPE svg PUBLIC "-//W3C//DTD SVG 1.1//EN" "http://www.w3.org/Graphics/SVG/1.1/DTD/svg11.dtd">
<svg version="1.1" id="Layer_1" xmlns="http://www.w3.org/2000/svg" xmlns:xlink="http://www.w3.org/1999/xlink" x="0px" y="0px"
	 width="66px" height="60px" viewBox="0 0 66 60" enable-background="new 0 0 66 60" xml:space="preserve">
<g>
	<path fill="#002D62" d="M66,54.389C66,57.486,64.238,60,60.828,60H5.176C1.766,60,0,57.486,0,54.389V5.613C0,2.514,1.766,0,5.176,0
		h55.652C64.238,0,66,2.514,66,5.613V54.389z"/>
	<polygon fill="#FFFFFF" points="33.004,41.434 24,28.109 24,38 28,38 28,48 10,48 10,38 14,38 14,22 10,22 10,14 23.766,14 
		33.203,27.42 42.637,14 56,14 56,22 52,22 52,38 56,38 56,48 38,48 38,38 42,38 42,28.109 	"/>
</g>
</svg>
