<?xml version="1.0" encoding="utf-8"?>
<!-- Generator: Adobe Illustrator 15.0.2, SVG Export Plug-In . SVG Version: 6.00 Build 0)  -->
<!DOCTYPE svg PUBLIC "-//W3C//DTD SVG 1.1//EN" "http://www.w3.org/Graphics/SVG/1.1/DTD/svg11.dtd">
<svg version="1.1" id="Layer_1" xmlns="http://www.w3.org/2000/svg" xmlns:xlink="http://www.w3.org/1999/xlink" x="0px" y="0px"
	 width="66px" height="60px" viewBox="0 0 66 60" enable-background="new 0 0 66 60" xml:space="preserve">
<g>
	<path fill="#B32317" d="M66,54.387c0,3.1-1.766,5.613-5.176,5.613H5.172C1.766,60,0,57.486,0,54.387V5.611C0,2.512,1.766,0,5.172,0
		h55.652C64.234,0,66,2.512,66,5.611V54.387z"/>
	<path fill="#FFFFFF" d="M51.375,28.973c1.168-1.764,1.77-3.855,2.539-5.459c-0.109,7.883,3.457,16.461,10.93,6.418
		c-5.734,0.367-3.766-8.564-9.922-8.168c0.75-2.367,4.848-0.941,6.262-0.4c0.023-1.889-0.285-1.881-1.914-2.328
		c6.504-4.158-2.117-5.557-1.41-8.58c0.199-0.697,0.402-1.395,0.605-2.092c-7.734,2.549-3.578,6.816-0.992,10.123
		c-3.898-0.545-5.477,7.045-6.898,9.508c-3.77-3.771-5.871-2.631-8.543-1.018c-8.098,4.883-20.801,6.127-29.992,4.969
		c-5.867-0.736-9.016-1.967-9.219-0.135c3.637,7.531,15.816,11.221,21.457,11.744C39.816,44.996,57.121,39.658,51.375,28.973"/>
</g>
</svg>
