<?xml version="1.0" encoding="utf-8"?>
<!-- Generator: Adobe Illustrator 15.0.2, SVG Export Plug-In . SVG Version: 6.00 Build 0)  -->
<!DOCTYPE svg PUBLIC "-//W3C//DTD SVG 1.1//EN" "http://www.w3.org/Graphics/SVG/1.1/DTD/svg11.dtd">
<svg version="1.1" id="Layer_1" xmlns="http://www.w3.org/2000/svg" xmlns:xlink="http://www.w3.org/1999/xlink" x="0px" y="0px"
	 width="66px" height="60px" viewBox="0 0 66 60" enable-background="new 0 0 66 60" xml:space="preserve">
<g>
	<path fill="#7A6F00" d="M66,54.387c0,3.1-1.764,5.613-5.174,5.613H7.174C3.764,60,0,57.486,0,54.387V5.611C0,2.512,3.764,0,7.174,0
		h53.652C64.236,0,66,2.512,66,5.611V54.387z"/>
	<path fill="#FFFFFF" d="M3.91,22.322c0,0,10.525,0.17,18.588,11.691c8.059,11.521,20.729,14.234,28.789,8.473
		c0,0,13.982,7.113,13.982,2.031c0-5.863-10.365,0.609-18.279-8.195C36.83,25.021,22.943,23.621,22.943,23.621
		s12.734-2.809,22.256,6.996c6.174,6.359,8.555,5.26,8.555,5.26s5.02-12.453-10.857-19.992C27.023,8.346,3.91,22.322,3.91,22.322"/>
</g>
</svg>
