<?xml version="1.0" encoding="utf-8"?>
<!-- Generator: Adobe Illustrator 15.0.2, SVG Export Plug-In . SVG Version: 6.00 Build 0)  -->
<!DOCTYPE svg PUBLIC "-//W3C//DTD SVG 1.1//EN" "http://www.w3.org/Graphics/SVG/1.1/DTD/svg11.dtd">
<svg version="1.1" id="Layer_1" xmlns="http://www.w3.org/2000/svg" xmlns:xlink="http://www.w3.org/1999/xlink" x="0px" y="0px"
	 width="66px" height="60px" viewBox="0 0 66 60" enable-background="new 0 0 66 60" xml:space="preserve">
<g>
	<path fill="#E87D1E" d="M66,54.387c0,3.1-1.773,5.613-5.168,5.613H5.176C1.762,60,0,57.486,0,54.387V5.611C0,2.512,1.762,0,5.176,0
		h55.656C64.227,0,66,2.512,66,5.611V54.387z"/>
	<path fill="#FFFFFF" d="M23.121,27.172c-3.516-4.098-9.947-6.604-9.385-13.617c-1.805,4.402-0.805,7.941,2.18,11.656
		c-3.193-3.041-11-4.311-14.08-1.184c3.037-0.906,7.938-0.23,11.93,3.354c-3.951,1.027-5.973,2.475-6.924,4.396
		c5.57-2.967,11.16-0.938,15.654-2.021c-0.238,1-0.479,2.002-0.721,3.002c0.459,0.094,0.918,0.197,1.377,0.312
		c-0.311,1.314-0.635,2.629-0.949,3.943c7.539,2.775,40.016,10.719,41.912,2.723c0.607-2.51-3.629-6.971-10.406-10.502l-0.982,4.039
		l-2.711-0.732l1.096-4.582c-1.889-0.881-3.939-1.742-6.131-2.561l-1.389,5.795L40.652,30.4l1.449-6.029
		c-1.98-0.67-4.047-1.305-6.174-1.887l-1.521,6.359l-3.057-0.822l1.514-6.332c-2.287-0.555-4.504-1.02-6.654-1.396
		c-0.334,1.418-0.68,2.832-1.014,4.246c-0.459-0.121-0.906-0.242-1.365-0.365C23.592,25.174,23.361,26.172,23.121,27.172"/>
</g>
</svg>
